<svg width="248" height="67" viewBox="0 0 248 67" fill="none" xmlns="http://www.w3.org/2000/svg">
<path fill-rule="evenodd" clip-rule="evenodd" d="M4.32521 0H44.1029C46.4916 0 48.4281 1.93695 48.4281 4.3263V44.2343C48.4281 46.6236 46.4916 48.5606 44.1029 48.5606H4.32521C1.93647 48.5606 0 46.6236 0 44.2343V4.3263C0 1.93695 1.93646 0 4.32521 0ZM10.4147 39.2457C9.81752 39.2457 9.3334 38.7615 9.3334 38.1642V9.42517C9.3334 8.82782 9.81752 8.34359 10.4147 8.34359H38.0574C38.6545 8.34359 39.1387 8.82782 39.1387 9.42517V38.1642C39.1387 38.7615 38.6545 39.2457 38.0574 39.2457H30.006C29.4088 39.2457 28.9247 38.7615 28.9247 38.1642V17.5039C28.9247 16.9065 28.4406 16.4223 27.8434 16.4223H20.6287C20.0315 16.4223 19.5474 16.9065 19.5474 17.5039V38.1642C19.5474 38.7615 19.0633 39.2457 18.4661 39.2457H10.4147Z" fill="white"/>
<path d="M78.5639 38.8611C78.7244 39.279 79.1257 39.5547 79.5732 39.5547H87.9214C88.7006 39.5547 89.2241 38.7553 88.9126 38.0408L76.3838 9.30182C76.2119 8.9075 75.8227 8.65256 75.3926 8.65256H66.595C66.1649 8.65256 65.7757 8.9075 65.6038 9.30182L53.0751 38.0408C52.7635 38.7553 53.287 39.5547 54.0662 39.5547H62.2383C62.6858 39.5547 63.0871 39.279 63.2476 38.8611L64.7838 34.8625C64.9444 34.4447 65.3457 34.1689 65.7932 34.1689H76.0182C76.4658 34.1689 76.8671 34.4447 77.0276 34.8625L78.5639 38.8611ZM69.4876 26.6642C68.7284 26.6642 68.2056 25.9021 68.4786 25.1935L69.8968 21.513C70.2526 20.5895 71.5588 20.5895 71.9147 21.513L73.3328 25.1935C73.6059 25.9021 73.0831 26.6642 72.3239 26.6642H69.4876ZM107.254 8.65256H93.4985C92.9013 8.65256 92.4172 9.1368 92.4172 9.73413V38.4731C92.4172 39.0705 92.9013 39.5547 93.4985 39.5547H101.726C102.323 39.5547 102.807 39.0705 102.807 38.4731V33.0432C102.807 32.4458 103.291 31.9616 103.889 31.9616H107.254C115.839 31.9616 121.298 27.4588 121.298 20.3071C121.298 13.1555 115.839 8.65256 107.254 8.65256ZM106.593 23.927H103.889C103.291 23.927 102.807 23.4428 102.807 22.8454V17.7687C102.807 17.1714 103.291 16.6872 103.889 16.6872H106.593C109.455 16.6872 110.819 18.0557 110.819 20.3071C110.819 22.5585 109.455 23.927 106.593 23.927ZM149.999 9.73413C149.999 9.13679 149.515 8.65256 148.918 8.65256H122.815C122.218 8.65256 121.734 9.1368 121.734 9.73413V15.6497C121.734 16.2471 122.218 16.7313 122.815 16.7313H129.678C130.275 16.7313 130.76 17.2155 130.76 17.8129V38.4731C130.76 39.0705 131.244 39.5547 131.841 39.5547H139.892C140.489 39.5547 140.974 39.0705 140.974 38.4731V17.8129C140.974 17.2155 141.458 16.7313 142.055 16.7313H148.918C149.515 16.7313 149.999 16.2471 149.999 15.6497V9.73413ZM174.494 8.65256C173.897 8.65256 173.413 9.1368 173.413 9.73413V18.5191C173.413 19.1165 172.928 19.6007 172.331 19.6007H164.896C164.299 19.6007 163.815 19.1165 163.815 18.5191V9.73413C163.815 9.1368 163.331 8.65256 162.734 8.65256H154.506C153.909 8.65256 153.425 9.1368 153.425 9.73413V38.4731C153.425 39.0705 153.909 39.5547 154.506 39.5547H162.734C163.331 39.5547 163.815 39.0705 163.815 38.4731V29.2466C163.815 28.6493 164.299 28.1651 164.896 28.1651H172.331C172.928 28.1651 173.413 28.6493 173.413 29.2466V38.4731C173.413 39.0705 173.897 39.5547 174.494 39.5547H182.722C183.319 39.5547 183.803 39.0705 183.803 38.4731V9.73413C183.803 9.1368 183.319 8.65256 182.722 8.65256H174.494ZM200.577 31.6967C199.979 31.6967 199.496 31.2125 199.496 30.6152V28.7169C199.496 28.1195 199.979 27.6353 200.577 27.6353H211.445C212.043 27.6353 212.527 27.1511 212.527 26.5537V21.212C212.527 20.6148 212.043 20.1305 211.445 20.1305H200.577C199.979 20.1305 199.496 19.6462 199.496 19.0489V17.5921C199.496 16.9948 199.979 16.5105 200.577 16.5105H213.251C213.848 16.5105 214.332 16.0263 214.332 15.429V9.73413C214.332 9.1368 213.848 8.65256 213.251 8.65256H190.363C189.765 8.65256 189.282 9.1368 189.282 9.73413V38.4731C189.282 39.0705 189.765 39.5547 190.363 39.5547H213.823C214.42 39.5547 214.904 39.0705 214.904 38.4731V32.7783C214.904 32.181 214.42 31.6967 213.823 31.6967H200.577ZM233.956 8.65256H220.201C219.604 8.65256 219.119 9.1368 219.119 9.73413V38.4731C219.119 39.0705 219.604 39.5547 220.201 39.5547H228.428C229.025 39.5547 229.51 39.0705 229.51 38.4731V33.0432C229.51 32.4458 229.993 31.9616 230.591 31.9616H233.956C242.54 31.9616 248 27.4588 248 20.3071C248 13.1555 242.54 8.65256 233.956 8.65256ZM233.295 23.927H230.591C229.993 23.927 229.51 23.4428 229.51 22.8454V17.7687C229.51 17.1714 229.993 16.6872 230.591 16.6872H233.295C236.157 16.6872 237.522 18.0557 237.522 20.3071C237.522 22.5585 236.157 23.927 233.295 23.927Z" fill="white"/>
<path d="M4.51965 66.106C3.74832 66.106 3.04908 65.9402 2.42192 65.6085C1.80198 65.2696 1.31178 64.8046 0.951347 64.2133C0.598121 63.6148 0.421509 62.9406 0.421509 62.1907C0.421509 61.4409 0.598121 60.7703 0.951347 60.179C1.31178 59.5805 1.80198 59.1155 2.42192 58.7837C3.04908 58.4449 3.75192 58.2754 4.53046 58.2754C5.18645 58.2754 5.77756 58.3908 6.3038 58.6215C6.83724 58.8522 7.28418 59.1839 7.64461 59.6166L6.52006 60.6549C6.00824 60.0636 5.37388 59.768 4.61696 59.768C4.1484 59.768 3.7303 59.8726 3.36265 60.0816C2.99501 60.2836 2.70666 60.5683 2.49761 60.9361C2.29576 61.3038 2.19485 61.7221 2.19485 62.1907C2.19485 62.6594 2.29576 63.0776 2.49761 63.4453C2.70666 63.8131 2.99501 64.1015 3.36265 64.3106C3.7303 64.5125 4.1484 64.6134 4.61696 64.6134C5.37388 64.6134 6.00824 64.3142 6.52006 63.7157L7.64461 64.754C7.28418 65.1939 6.83724 65.5292 6.3038 65.7599C5.77036 65.9906 5.17564 66.106 4.51965 66.106ZM22.8538 59.8329H20.4317V65.9762H18.7016V59.8329H16.2903V58.4052H22.8538V59.8329ZM35.502 58.4052C36.1724 58.4052 36.7527 58.5169 37.2429 58.7405C37.7403 58.964 38.1223 59.2813 38.3891 59.6923C38.6558 60.1033 38.7892 60.59 38.7892 61.1524C38.7892 61.7076 38.6558 62.1943 38.3891 62.6125C38.1223 63.0235 37.7403 63.3407 37.2429 63.5643C36.7527 63.7806 36.1724 63.8888 35.502 63.8888H33.9774V65.9762H32.2257V58.4052H35.502ZM35.4047 62.4611C35.931 62.4611 36.331 62.3494 36.6049 62.1258C36.8788 61.8951 37.0158 61.5706 37.0158 61.1524C37.0158 60.727 36.8788 60.4025 36.6049 60.179C36.331 59.9483 35.931 59.8329 35.4047 59.8329H33.9774V62.4611H35.4047ZM52.9619 64.3539H49.4477L48.7773 65.9762H46.9823L50.356 58.4052H52.0861L55.4705 65.9762H53.6323L52.9619 64.3539ZM52.4104 63.0235L51.2102 60.1249L50.01 63.0235H52.4104ZM65.718 58.4052L67.2859 60.6981L68.8538 58.4052H70.9083L68.3889 62.0285L71.1137 65.9762H69.0485L67.2859 63.467L65.545 65.9762H63.523L66.2263 62.1042L63.696 58.4052H65.718ZM83.7681 66.106C82.9823 66.106 82.2723 65.9365 81.638 65.5977C81.0108 65.2588 80.517 64.7937 80.1566 64.2024C79.8033 63.604 79.6267 62.9334 79.6267 62.1907C79.6267 61.448 79.8033 60.7811 80.1566 60.1898C80.517 59.5914 81.0108 59.1226 81.638 58.7837C82.2723 58.4449 82.9823 58.2754 83.7681 58.2754C84.5538 58.2754 85.2603 58.4449 85.8875 58.7837C86.5146 59.1226 87.0084 59.5914 87.3689 60.1898C87.7293 60.7811 87.9095 61.448 87.9095 62.1907C87.9095 62.9334 87.7293 63.604 87.3689 64.2024C87.0084 64.7937 86.5146 65.2588 85.8875 65.5977C85.2603 65.9365 84.5538 66.106 83.7681 66.106ZM83.7681 64.6134C84.215 64.6134 84.6187 64.5125 84.9792 64.3106C85.3396 64.1015 85.6207 63.8131 85.8226 63.4453C86.0316 63.0776 86.1362 62.6594 86.1362 62.1907C86.1362 61.7221 86.0316 61.3038 85.8226 60.9361C85.6207 60.5683 85.3396 60.2836 84.9792 60.0816C84.6187 59.8726 84.215 59.768 83.7681 59.768C83.3211 59.768 82.9175 59.8726 82.5571 60.0816C82.1966 60.2836 81.9119 60.5683 81.7028 60.9361C81.501 61.3038 81.4001 61.7221 81.4001 62.1907C81.4001 62.6594 81.501 63.0776 81.7028 63.4453C81.9119 63.8131 82.1966 64.1015 82.5571 64.3106C82.9175 64.5125 83.3211 64.6134 83.7681 64.6134ZM102.775 62.0285C103.237 62.1655 103.59 62.389 103.835 62.6991C104.08 63.0091 104.202 63.3913 104.202 63.8455C104.202 64.5161 103.947 65.0388 103.435 65.4138C102.93 65.7888 102.206 65.9762 101.261 65.9762H97.5308V58.4052H101.056C101.935 58.4052 102.62 58.5747 103.11 58.9135C103.601 59.2524 103.846 59.7355 103.846 60.3628C103.846 60.7378 103.752 61.0694 103.565 61.3579C103.377 61.6391 103.114 61.8627 102.775 62.0285ZM99.2717 61.5418H100.905C101.287 61.5418 101.575 61.4661 101.77 61.3146C101.964 61.156 102.062 60.9253 102.062 60.6224C102.062 60.3268 101.961 60.0997 101.759 59.941C101.564 59.7824 101.279 59.7031 100.905 59.7031H99.2717V61.5418ZM101.196 64.6783C102.018 64.6783 102.429 64.3539 102.429 63.7049C102.429 63.0776 102.018 62.7639 101.196 62.7639H99.2717V64.6783H101.196ZM117.471 66.106C116.685 66.106 115.976 65.9365 115.341 65.5977C114.714 65.2588 114.22 64.7937 113.86 64.2024C113.506 63.604 113.33 62.9334 113.33 62.1907C113.33 61.448 113.506 60.7811 113.86 60.1898C114.22 59.5914 114.714 59.1226 115.341 58.7837C115.976 58.4449 116.685 58.2754 117.471 58.2754C118.258 58.2754 118.964 58.4449 119.591 58.7837C120.218 59.1226 120.712 59.5914 121.072 60.1898C121.432 60.7811 121.613 61.448 121.613 62.1907C121.613 62.9334 121.432 63.604 121.072 64.2024C120.712 64.7937 120.218 65.2588 119.591 65.5977C118.964 65.9365 118.258 66.106 117.471 66.106ZM117.471 64.6134C117.918 64.6134 118.322 64.5125 118.683 64.3106C119.043 64.1015 119.324 63.8131 119.526 63.4453C119.735 63.0776 119.84 62.6594 119.84 62.1907C119.84 61.7221 119.735 61.3038 119.526 60.9361C119.324 60.5683 119.043 60.2836 118.683 60.0816C118.322 59.8726 117.918 59.768 117.471 59.768C117.025 59.768 116.62 59.8726 116.26 60.0816C115.9 60.2836 115.615 60.5683 115.406 60.9361C115.204 61.3038 115.103 61.7221 115.103 62.1907C115.103 62.6594 115.204 63.0776 115.406 63.4453C115.615 63.8131 115.9 64.1015 116.26 64.3106C116.62 64.5125 117.025 64.6134 117.471 64.6134ZM131.234 58.4052H132.975V63.3372L136.587 58.4052H138.23V65.9762H136.5V61.0551L132.889 65.9762H131.234V58.4052ZM134.727 57.9185C133.343 57.9185 132.643 57.3669 132.629 56.2637H133.829C133.843 56.7901 134.143 57.0532 134.727 57.0532C135.016 57.0532 135.235 56.9883 135.387 56.8585C135.538 56.7215 135.617 56.5233 135.624 56.2637H136.825C136.817 56.8045 136.641 57.2155 136.295 57.4967C135.949 57.7779 135.427 57.9185 134.727 57.9185ZM163.3 66.106C162.528 66.106 161.83 65.9402 161.203 65.6085C160.582 65.2696 160.092 64.8046 159.732 64.2133C159.378 63.6148 159.202 62.9406 159.202 62.1907C159.202 61.4409 159.378 60.7703 159.732 60.179C160.092 59.5805 160.582 59.1155 161.203 58.7837C161.83 58.4449 162.533 58.2754 163.311 58.2754C163.966 58.2754 164.558 58.3908 165.084 58.6215C165.618 58.8522 166.064 59.1839 166.425 59.6166L165.301 60.6549C164.788 60.0636 164.155 59.768 163.398 59.768C162.928 59.768 162.511 59.8726 162.143 60.0816C161.776 60.2836 161.487 60.5683 161.278 60.9361C161.076 61.3038 160.976 61.7221 160.976 62.1907C160.976 62.6594 161.076 63.0776 161.278 63.4453C161.487 63.8131 161.776 64.1015 162.143 64.3106C162.511 64.5125 162.928 64.6134 163.398 64.6134C164.155 64.6134 164.788 64.3142 165.301 63.7157L166.425 64.754C166.064 65.1939 165.618 65.5292 165.084 65.7599C164.55 65.9906 163.956 66.106 163.3 66.106ZM181.7 64.5702V65.9762H175.839V58.4052H181.559V59.8112H177.58V61.4552H181.094V62.818H177.58V64.5702H181.7ZM194.662 58.4052C195.333 58.4052 195.914 58.5169 196.403 58.7405C196.901 58.964 197.284 59.2813 197.55 59.6923C197.817 60.1033 197.95 60.59 197.95 61.1524C197.95 61.7076 197.817 62.1943 197.55 62.6125C197.284 63.0235 196.901 63.3407 196.403 63.5643C195.914 63.7806 195.333 63.8888 194.662 63.8888H193.138V65.9762H191.386V58.4052H194.662ZM194.565 62.4611C195.092 62.4611 195.492 62.3494 195.765 62.1258C196.04 61.8951 196.176 61.5706 196.176 61.1524C196.176 60.727 196.04 60.4025 195.765 60.179C195.492 59.9483 195.092 59.8329 194.565 59.8329H193.138V62.4611H194.565ZM212.622 62.0285C213.084 62.1655 213.436 62.389 213.682 62.6991C213.927 63.0091 214.049 63.3913 214.049 63.8455C214.049 64.5161 213.793 65.0388 213.281 65.4138C212.776 65.7888 212.052 65.9762 211.108 65.9762H207.378V58.4052H210.903C211.782 58.4052 212.467 58.5747 212.957 58.9135C213.447 59.2524 213.692 59.7355 213.692 60.3628C213.692 60.7378 213.598 61.0694 213.411 61.3579C213.224 61.6391 212.96 61.8627 212.622 62.0285ZM209.118 61.5418H210.751C211.133 61.5418 211.422 61.4661 211.616 61.3146C211.811 61.156 211.908 60.9253 211.908 60.6224C211.908 60.3268 211.808 60.0997 211.605 59.941C211.411 59.7824 211.126 59.7031 210.751 59.7031H209.118V61.5418ZM211.043 64.6783C211.865 64.6783 212.276 64.3539 212.276 63.7049C212.276 63.0776 211.865 62.7639 211.043 62.7639H209.118V64.6783H211.043ZM223.706 58.4052H225.447V63.3372L229.059 58.4052H230.702V65.9762H228.972V61.0551L225.361 65.9762H223.706V58.4052ZM244.438 66.106C243.667 66.106 242.968 65.9402 242.34 65.6085C241.721 65.2696 241.23 64.8046 240.87 64.2133C240.516 63.6148 240.34 62.9406 240.34 62.1907C240.34 61.4409 240.516 60.7703 240.87 60.179C241.23 59.5805 241.721 59.1155 242.34 58.7837C242.968 58.4449 243.67 58.2754 244.449 58.2754C245.105 58.2754 245.696 58.3908 246.222 58.6215C246.755 58.8522 247.203 59.1839 247.563 59.6166L246.438 60.6549C245.927 60.0636 245.292 59.768 244.535 59.768C244.067 59.768 243.649 59.8726 243.281 60.0816C242.913 60.2836 242.625 60.5683 242.416 60.9361C242.214 61.3038 242.113 61.7221 242.113 62.1907C242.113 62.6594 242.214 63.0776 242.416 63.4453C242.625 63.8131 242.913 64.1015 243.281 64.3106C243.649 64.5125 244.067 64.6134 244.535 64.6134C245.292 64.6134 245.927 64.3142 246.438 63.7157L247.563 64.754C247.203 65.1939 246.755 65.5292 246.222 65.7599C245.689 65.9906 245.094 66.106 244.438 66.106Z" fill="white"/>
</svg>
