<svg width="316" height="85" viewBox="0 0 316 85" fill="none" xmlns="http://www.w3.org/2000/svg">
<path fill-rule="evenodd" clip-rule="evenodd" d="M5.51115 0H56.1956C59.2393 0 61.7067 2.46805 61.7067 5.51255V56.363C61.7067 59.4075 59.2393 61.8756 56.1956 61.8756H5.51115C2.46744 61.8756 0 59.4075 0 56.363V5.51255C0 2.46805 2.46743 0 5.51115 0ZM13.2703 50.0067C12.5094 50.0067 11.8925 49.3897 11.8925 48.6285V12.0095C11.8925 11.2484 12.5094 10.6313 13.2703 10.6313H48.4925C49.2533 10.6313 49.8703 11.2484 49.8703 12.0095V48.6285C49.8703 49.3897 49.2533 50.0067 48.4925 50.0067H38.2335C37.4725 50.0067 36.8557 49.3897 36.8557 48.6285V22.3034C36.8557 21.5422 36.2389 20.9252 35.4779 20.9252H26.2849C25.5239 20.9252 24.9071 21.5422 24.9071 22.3034V48.6285C24.9071 49.3897 24.2903 50.0067 23.5293 50.0067H13.2703Z" fill="#2F80ED"/>
<path d="M100.106 49.5165C100.31 50.049 100.822 50.4003 101.392 50.4003H112.029C113.022 50.4003 113.689 49.3817 113.292 48.4713L97.3279 11.8523C97.1088 11.3498 96.6129 11.025 96.0649 11.025H84.855C84.307 11.025 83.8111 11.3498 83.592 11.8523L67.628 48.4713C67.2311 49.3817 67.898 50.4003 68.8909 50.4003H79.3038C79.8739 50.4003 80.3852 50.049 80.5898 49.5165L82.5472 44.4215C82.7518 43.8891 83.2631 43.5377 83.8334 43.5377H96.8621C97.4323 43.5377 97.9436 43.8891 98.1482 44.4215L100.106 49.5165ZM88.5408 33.9752C87.5734 33.9752 86.9073 33.0042 87.2551 32.1014L89.0621 27.4117C89.5156 26.2349 91.1799 26.2349 91.6333 27.4117L93.4403 32.1014C93.7882 33.0042 93.122 33.9752 92.1547 33.9752H88.5408ZM136.662 11.025H119.135C118.374 11.025 117.757 11.642 117.757 12.4031V49.0222C117.757 49.7833 118.374 50.4003 119.135 50.4003H129.619C130.38 50.4003 130.996 49.7833 130.996 49.0222V42.1034C130.996 41.3422 131.613 40.7252 132.374 40.7252H136.662C147.601 40.7252 154.558 34.9878 154.558 25.8751C154.558 16.7626 147.601 11.025 136.662 11.025ZM135.821 30.4876H132.374C131.613 30.4876 130.996 29.8706 130.996 29.1095V22.6408C130.996 21.8796 131.613 21.2626 132.374 21.2626H135.821C139.467 21.2626 141.205 23.0064 141.205 25.8751C141.205 28.7438 139.467 30.4876 135.821 30.4876ZM191.128 12.4031C191.128 11.642 190.511 11.025 189.75 11.025H156.491C155.73 11.025 155.113 11.642 155.113 12.4031V19.9407C155.113 20.7019 155.73 21.3189 156.491 21.3189H165.235C165.996 21.3189 166.613 21.9358 166.613 22.697V49.0222C166.613 49.7833 167.23 50.4003 167.991 50.4003H178.25C179.01 50.4003 179.628 49.7833 179.628 49.0222V22.697C179.628 21.9358 180.245 21.3189 181.006 21.3189H189.75C190.511 21.3189 191.128 20.7019 191.128 19.9407V12.4031ZM222.339 11.025C221.579 11.025 220.961 11.642 220.961 12.4031V23.5969C220.961 24.3581 220.344 24.975 219.584 24.975H210.11C209.349 24.975 208.732 24.3581 208.732 23.5969V12.4031C208.732 11.642 208.115 11.025 207.354 11.025H196.871C196.11 11.025 195.493 11.642 195.493 12.4031V49.0222C195.493 49.7833 196.11 50.4003 196.871 50.4003H207.354C208.115 50.4003 208.732 49.7833 208.732 49.0222V37.2658C208.732 36.5047 209.349 35.8877 210.11 35.8877H219.584C220.344 35.8877 220.961 36.5047 220.961 37.2658V49.0222C220.961 49.7833 221.579 50.4003 222.339 50.4003H232.823C233.583 50.4003 234.201 49.7833 234.201 49.0222V12.4031C234.201 11.642 233.583 11.025 232.823 11.025H222.339ZM255.574 40.3877C254.812 40.3877 254.196 39.7707 254.196 39.0096V36.5908C254.196 35.8297 254.812 35.2127 255.574 35.2127H269.422C270.184 35.2127 270.8 34.5957 270.8 33.8345V27.0282C270.8 26.2672 270.184 25.6501 269.422 25.6501H255.574C254.812 25.6501 254.196 25.0331 254.196 24.2719V22.4157C254.196 21.6546 254.812 21.0376 255.574 21.0376H271.723C272.484 21.0376 273.101 20.4206 273.101 19.6594V12.4031C273.101 11.642 272.484 11.025 271.723 11.025H242.56C241.798 11.025 241.182 11.642 241.182 12.4031V49.0222C241.182 49.7833 241.798 50.4003 242.56 50.4003H272.452C273.213 50.4003 273.83 49.7833 273.83 49.0222V41.7659C273.83 41.0047 273.213 40.3877 272.452 40.3877H255.574ZM298.105 11.025H280.578C279.818 11.025 279.201 11.642 279.201 12.4031V49.0222C279.201 49.7833 279.818 50.4003 280.578 50.4003H291.062C291.822 50.4003 292.44 49.7833 292.44 49.0222V42.1034C292.44 41.3422 293.056 40.7252 293.818 40.7252H298.105C309.043 40.7252 316 34.9878 316 25.8751C316 16.7626 309.043 11.025 298.105 11.025ZM297.263 30.4876H293.818C293.056 30.4876 292.44 29.8706 292.44 29.1095V22.6408C292.44 21.8796 293.056 21.2626 293.818 21.2626H297.263C300.91 21.2626 302.649 23.0064 302.649 25.8751C302.649 28.7438 300.91 30.4876 297.263 30.4876Z" fill="#2F80ED"/>
<path d="M5.75905 84.2318C4.77623 84.2318 3.88526 84.0206 3.08614 83.5979C2.29621 83.1661 1.67161 82.5735 1.21235 81.8201C0.76227 81.0576 0.537231 80.1984 0.537231 79.243C0.537231 78.2875 0.76227 77.4331 1.21235 76.6797C1.67161 75.9171 2.29621 75.3245 3.08614 74.9019C3.88526 74.4701 4.78082 74.2541 5.77283 74.2541C6.60869 74.2541 7.36187 74.4012 8.0324 74.6951C8.71211 74.9891 9.2816 75.4118 9.74086 75.963L8.30796 77.286C7.65581 76.5326 6.8475 76.156 5.88305 76.156C5.28602 76.156 4.75326 76.2892 4.28482 76.5556C3.81637 76.8129 3.44895 77.1758 3.18259 77.6443C2.92539 78.1129 2.79681 78.6458 2.79681 79.243C2.79681 79.8401 2.92539 80.3731 3.18259 80.8416C3.44895 81.3102 3.81637 81.6777 4.28482 81.9441C4.75326 82.2014 5.28602 82.33 5.88305 82.33C6.8475 82.33 7.65581 81.9487 8.30796 81.1862L9.74086 82.5092C9.2816 83.0697 8.71211 83.4969 8.0324 83.7908C7.3527 84.0848 6.59491 84.2318 5.75905 84.2318ZM29.1203 76.2386H26.034V84.0665H23.8296V76.2386H20.7571V74.4195H29.1203V76.2386ZM45.2366 74.4195C46.0908 74.4195 46.8302 74.5619 47.4548 74.8467C48.0886 75.1316 48.5754 75.5358 48.9153 76.0595C49.2552 76.5832 49.425 77.2033 49.425 77.92C49.425 78.6274 49.2552 79.2475 48.9153 79.7805C48.5754 80.3042 48.0886 80.7084 47.4548 80.9932C46.8302 81.2688 46.0908 81.4067 45.2366 81.4067H43.2939V84.0665H41.0619V74.4195H45.2366ZM45.1126 79.5875C45.7831 79.5875 46.2929 79.4452 46.6419 79.1603C46.9909 78.8663 47.1655 78.4529 47.1655 77.92C47.1655 77.378 46.9909 76.9645 46.6419 76.6797C46.2929 76.3857 45.7831 76.2386 45.1126 76.2386H43.2939V79.5875H45.1126ZM67.4838 81.9993H63.006L62.1518 84.0665H59.8647L64.1634 74.4195H66.3678L70.6803 84.0665H68.3381L67.4838 81.9993ZM66.7812 80.3042L65.2518 76.6107L63.7225 80.3042H66.7812ZM83.7376 74.4195L85.7354 77.3412L87.7332 74.4195H90.351L87.1408 79.0363L90.6128 84.0665H87.9812L85.7354 80.8692L83.5172 84.0665H80.9407L84.3852 79.1327L81.1612 74.4195H83.7376ZM106.737 84.2318C105.736 84.2318 104.831 84.0159 104.023 83.5841C103.224 83.1523 102.594 82.5597 102.135 81.8063C101.685 81.0438 101.46 80.1894 101.46 79.243C101.46 78.2966 101.685 77.4469 102.135 76.6934C102.594 75.9309 103.224 75.3336 104.023 74.9019C104.831 74.4701 105.736 74.2541 106.737 74.2541C107.738 74.2541 108.638 74.4701 109.437 74.9019C110.237 75.3336 110.866 75.9309 111.325 76.6934C111.784 77.4469 112.014 78.2966 112.014 79.243C112.014 80.1894 111.784 81.0438 111.325 81.8063C110.866 82.5597 110.237 83.1523 109.437 83.5841C108.638 84.0159 107.738 84.2318 106.737 84.2318ZM106.737 82.33C107.306 82.33 107.821 82.2014 108.28 81.9441C108.739 81.6777 109.097 81.3102 109.355 80.8416C109.621 80.3731 109.754 79.8401 109.754 79.243C109.754 78.6458 109.621 78.1129 109.355 77.6443C109.097 77.1758 108.739 76.8129 108.28 76.5556C107.821 76.2892 107.306 76.156 106.737 76.156C106.167 76.156 105.653 76.2892 105.194 76.5556C104.734 76.8129 104.372 77.1758 104.105 77.6443C103.848 78.1129 103.72 78.6458 103.72 79.243C103.72 79.8401 103.848 80.3731 104.105 80.8416C104.372 81.3102 104.734 81.6777 105.194 81.9441C105.653 82.2014 106.167 82.33 106.737 82.33ZM130.956 79.0363C131.543 79.2109 131.994 79.4956 132.306 79.8907C132.618 80.2858 132.774 80.7727 132.774 81.3515C132.774 82.206 132.448 82.872 131.796 83.3498C131.153 83.8276 130.23 84.0665 129.027 84.0665H124.273V74.4195H128.765C129.886 74.4195 130.758 74.6355 131.383 75.0672C132.007 75.499 132.32 76.1146 132.32 76.9139C132.32 77.3917 132.2 77.8143 131.961 78.1818C131.723 78.5401 131.387 78.825 130.956 79.0363ZM126.492 78.4161H128.572C129.059 78.4161 129.426 78.3196 129.674 78.1267C129.922 77.9245 130.046 77.6306 130.046 77.2447C130.046 76.868 129.918 76.5786 129.66 76.3765C129.412 76.1743 129.05 76.0733 128.572 76.0733H126.492V78.4161ZM128.944 82.4127C129.991 82.4127 130.515 81.9993 130.515 81.1724C130.515 80.3731 129.991 79.9734 128.944 79.9734H126.492V82.4127H128.944ZM149.681 84.2318C148.68 84.2318 147.776 84.0159 146.967 83.5841C146.168 83.1523 145.538 82.5597 145.08 81.8063C144.629 81.0438 144.405 80.1894 144.405 79.243C144.405 78.2966 144.629 77.4469 145.08 76.6934C145.538 75.9309 146.168 75.3336 146.967 74.9019C147.776 74.4701 148.68 74.2541 149.681 74.2541C150.683 74.2541 151.583 74.4701 152.382 74.9019C153.181 75.3336 153.811 75.9309 154.27 76.6934C154.728 77.4469 154.958 78.2966 154.958 79.243C154.958 80.1894 154.728 81.0438 154.27 81.8063C153.811 82.5597 153.181 83.1523 152.382 83.5841C151.583 84.0159 150.683 84.2318 149.681 84.2318ZM149.681 82.33C150.251 82.33 150.766 82.2014 151.225 81.9441C151.683 81.6777 152.042 81.3102 152.299 80.8416C152.565 80.3731 152.699 79.8401 152.699 79.243C152.699 78.6458 152.565 78.1129 152.299 77.6443C152.042 77.1758 151.683 76.8129 151.225 76.5556C150.766 76.2892 150.251 76.156 149.681 76.156C149.112 76.156 148.597 76.2892 148.138 76.5556C147.68 76.8129 147.316 77.1758 147.05 77.6443C146.792 78.1129 146.664 78.6458 146.664 79.243C146.664 79.8401 146.792 80.3731 147.05 80.8416C147.316 81.3102 147.68 81.6777 148.138 81.9441C148.597 82.2014 149.112 82.33 149.681 82.33ZM167.218 74.4195H169.436V80.7038L174.038 74.4195H176.132V84.0665H173.928V77.7959L169.326 84.0665H167.218V74.4195ZM171.668 73.7993C169.905 73.7993 169.013 73.0965 168.995 71.6908H170.525C170.543 72.3615 170.924 72.6968 171.668 72.6968C172.036 72.6968 172.316 72.6141 172.509 72.4488C172.702 72.2742 172.802 72.0215 172.812 71.6908H174.341C174.332 72.3799 174.107 72.9036 173.666 73.2619C173.225 73.6202 172.56 73.7993 171.668 73.7993ZM208.076 84.2318C207.093 84.2318 206.203 84.0206 205.403 83.5979C204.613 83.1661 203.988 82.5735 203.53 81.8201C203.079 81.0576 202.854 80.1984 202.854 79.243C202.854 78.2875 203.079 77.4331 203.53 76.6797C203.988 75.9171 204.613 75.3245 205.403 74.9019C206.203 74.4701 207.098 74.2541 208.09 74.2541C208.925 74.2541 209.679 74.4012 210.35 74.6951C211.029 74.9891 211.598 75.4118 212.058 75.963L210.625 77.286C209.972 76.5326 209.165 76.156 208.2 76.156C207.602 76.156 207.071 76.2892 206.602 76.5556C206.134 76.8129 205.766 77.1758 205.5 77.6443C205.242 78.1129 205.114 78.6458 205.114 79.243C205.114 79.8401 205.242 80.3731 205.5 80.8416C205.766 81.3102 206.134 81.6777 206.602 81.9441C207.071 82.2014 207.602 82.33 208.2 82.33C209.165 82.33 209.972 81.9487 210.625 81.1862L212.058 82.5092C211.598 83.0697 211.029 83.4969 210.35 83.7908C209.669 84.0848 208.911 84.2318 208.076 84.2318ZM231.521 82.2749V84.0665H224.053V74.4195H231.342V76.2111H226.271V78.3059H230.749V80.0423H226.271V82.2749H231.521ZM248.038 74.4195C248.892 74.4195 249.632 74.5619 250.256 74.8467C250.89 75.1316 251.377 75.5358 251.716 76.0595C252.057 76.5832 252.226 77.2033 252.226 77.92C252.226 78.6274 252.057 79.2475 251.716 79.7805C251.377 80.3042 250.89 80.7084 250.256 80.9932C249.632 81.2688 248.892 81.4067 248.038 81.4067H246.095V84.0665H243.863V74.4195H248.038ZM247.914 79.5875C248.585 79.5875 249.094 79.4452 249.443 79.1603C249.793 78.8663 249.967 78.4529 249.967 77.92C249.967 77.378 249.793 76.9645 249.443 76.6797C249.094 76.3857 248.585 76.2386 247.914 76.2386H246.095V79.5875H247.914ZM270.921 79.0363C271.51 79.2109 271.959 79.4956 272.272 79.8907C272.584 80.2858 272.74 80.7727 272.74 81.3515C272.74 82.206 272.414 82.872 271.762 83.3498C271.118 83.8276 270.195 84.0665 268.992 84.0665H264.239V74.4195H268.731C269.851 74.4195 270.724 74.6355 271.349 75.0672C271.973 75.499 272.285 76.1146 272.285 76.9139C272.285 77.3917 272.166 77.8143 271.927 78.1818C271.689 78.5401 271.353 78.825 270.921 79.0363ZM266.457 78.4161H268.538C269.024 78.4161 269.392 78.3196 269.64 78.1267C269.888 77.9245 270.012 77.6306 270.012 77.2447C270.012 76.868 269.884 76.5786 269.626 76.3765C269.378 76.1743 269.016 76.0733 268.538 76.0733H266.457V78.4161ZM268.91 82.4127C269.957 82.4127 270.48 81.9993 270.48 81.1724C270.48 80.3731 269.957 79.9734 268.91 79.9734H266.457V82.4127H268.91ZM285.045 74.4195H287.263V80.7038L291.865 74.4195H293.959V84.0665H291.755V77.7959L287.153 84.0665H285.045V74.4195ZM311.461 84.2318C310.479 84.2318 309.588 84.0206 308.789 83.5979C307.999 83.1661 307.374 82.5735 306.915 81.8201C306.464 81.0576 306.24 80.1984 306.24 79.243C306.24 78.2875 306.464 77.4331 306.915 76.6797C307.374 75.9171 307.999 75.3245 308.789 74.9019C309.588 74.4701 310.483 74.2541 311.475 74.2541C312.312 74.2541 313.064 74.4012 313.735 74.6951C314.414 74.9891 314.984 75.4118 315.443 75.963L314.01 77.286C313.359 76.5326 312.55 76.156 311.585 76.156C310.989 76.156 310.456 76.2892 309.987 76.5556C309.519 76.8129 309.151 77.1758 308.885 77.6443C308.627 78.1129 308.499 78.6458 308.499 79.243C308.499 79.8401 308.627 80.3731 308.885 80.8416C309.151 81.3102 309.519 81.6777 309.987 81.9441C310.456 82.2014 310.989 82.33 311.585 82.33C312.55 82.33 313.359 81.9487 314.01 81.1862L315.443 82.5092C314.984 83.0697 314.414 83.4969 313.735 83.7908C313.056 84.0848 312.298 84.2318 311.461 84.2318Z" fill="#2F80ED"/>
</svg>
